<svg width="50" height="50" viewBox="0 0 50 50" fill="none" xmlns="http://www.w3.org/2000/svg">
<g clip-path="url(#clip0_4_238)">
<path fill-rule="evenodd" clip-rule="evenodd" d="M12.3321 9.38295V11.0676H12.3099H11.7321C11.1476 11.0676 10.5623 11.0652 9.97665 11.0628C8.41347 11.0563 6.84762 11.0497 5.28765 11.0895C2.38765 11.1661 0.00987652 13.5291 0.00987652 16.3843C-0.00493941 21.4388 7.45104e-07 26.4884 0.00493947 31.5364C0.00740817 34.0598 0.00987652 36.5828 0.00987652 39.1058C0.0209877 40.4186 0.498765 41.5782 1.37654 42.5737C2.56543 43.8974 4.07654 44.4443 5.86543 44.4443H44.1432C44.2265 44.4443 44.3127 44.4416 44.3988 44.4389C44.4849 44.4361 44.571 44.4334 44.6543 44.4334C47.721 44.2802 49.9988 41.972 49.9988 38.9417C50.0062 33.9679 50.0037 28.994 50.0012 24.0201C50 21.5332 49.9988 19.0463 49.9988 16.5593C49.9988 16.1327 49.9543 15.6951 49.8543 15.2794C49.2321 12.7523 47.0877 11.1005 44.3765 11.0786C43.0066 11.0713 41.6416 11.0737 40.2749 11.0762C39.5909 11.0774 38.9066 11.0786 38.221 11.0786H37.6877V9.43765C37.6765 6.51678 35.6099 4.4492 32.6432 4.4492C29.2502 4.4419 25.8523 4.44434 22.456 4.44677C20.7584 4.44798 19.0613 4.4492 17.3654 4.4492C16.9099 4.4492 16.4321 4.48202 15.9877 4.60235C13.6988 5.23685 12.3321 7.03094 12.3321 9.38295ZM12.8099 27.7833C12.7765 21.1977 18.2543 15.7826 24.9988 15.7607C31.6877 15.7389 37.1765 21.1102 37.2099 27.7177C37.2432 34.3033 31.7654 39.7184 25.021 39.7403C18.3321 39.7622 12.8543 34.3909 12.8099 27.7833ZM25.0099 35.6711C29.4543 35.6602 33.0765 32.1267 33.0765 27.7618L33.0654 27.7727C33.0765 23.4188 29.4543 19.8525 25.021 19.8415C20.5765 19.8306 16.9321 23.4078 16.9432 27.7727C16.9654 32.1376 20.5654 35.6711 25.0099 35.6711Z" fill="#6A3906"/>
</g>
<defs>
<clipPath id="clip0_4_238">
<rect width="50" height="50" fill="white"/>
</clipPath>
</defs>
</svg>
