<svg width="50" height="50" viewBox="0 0 50 50" fill="none" xmlns="http://www.w3.org/2000/svg">
<path fill-rule="evenodd" clip-rule="evenodd" d="M46.2974 33.4866C47.3469 31.5958 47.4748 29.3899 47.4268 27.2695L47.4215 27.2909C47.4103 26.8023 47.381 26.3112 47.3516 25.8192C47.3389 25.6066 47.3262 25.3939 47.3149 25.1811C47.2936 24.7805 47.2776 24.3799 47.2776 23.9794C47.2798 23.5544 47.3346 23.1367 47.3892 22.7198C47.467 22.1256 47.5446 21.5332 47.4694 20.9242C47.2617 19.2097 46.8301 17.2655 46.2228 15.6418C45.6101 14.0075 44.3528 12.6775 43.0901 11.5185C42.1672 10.6716 41.5017 9.77518 40.8048 8.83653C40.504 8.43139 40.1973 8.01838 39.8616 7.59809C39.7071 7.40581 39.5473 7.21887 39.3821 7.04261C35.9565 3.36257 31.5239 3.3412 26.8729 3.34654C26.6438 3.34654 26.4201 3.34654 26.191 3.33586C25.3104 3.30419 24.4562 3.10893 23.6082 2.91511C22.1681 2.58593 20.746 2.26089 19.2438 2.74834C17.4117 3.33989 15.8641 4.55941 14.3509 5.7518C13.9104 6.09896 13.4727 6.44382 13.0318 6.77021C12.2927 7.31592 11.4858 7.71336 10.6848 8.10787C9.99625 8.447 9.31209 8.78398 8.67917 9.21111C7.51242 9.99626 6.65468 11.3796 6.24445 12.7149C6.09861 13.1878 6.00735 13.6763 5.91606 14.1651C5.79392 14.8189 5.67173 15.4731 5.41867 16.0905C5.12483 16.8046 4.65482 17.4169 4.18428 18.0299C3.86996 18.4394 3.5554 18.8492 3.29296 19.2898C2.07294 22.5479 2.27539 26.3134 3.79908 29.4327C3.89498 29.6303 3.98555 29.8333 4.07079 30.0362C4.188 30.2926 4.28922 30.5543 4.37446 30.816C4.67799 31.7245 4.65735 32.7185 4.63681 33.708C4.60759 35.1152 4.57857 36.513 5.4826 37.642C6.0793 38.3898 6.89442 38.9292 7.69356 39.4526C8.69867 40.1108 9.50261 40.9881 10.3066 41.8655C10.9772 42.5973 11.6478 43.3291 12.4351 43.9338C13.8481 45.0153 15.5598 45.2675 17.276 45.5205C18.2129 45.6585 19.1512 45.7968 20.0429 46.0703C20.4262 46.1868 20.8215 46.3194 21.2231 46.4542C21.9267 46.6904 22.6498 46.9331 23.362 47.1065C24.1038 47.2858 24.8311 47.3165 25.5632 47.3474C26.009 47.3662 26.4565 47.3851 26.9102 47.4376C28.338 47.6032 29.8883 47.4537 31.1936 46.8127C31.6601 46.5835 32.0989 46.3291 32.5338 46.0769C33.3655 45.5947 34.183 45.1208 35.152 44.8472C35.317 44.8001 35.4838 44.7536 35.6517 44.7068C37.0831 44.3077 38.593 43.8867 39.7231 42.8923C40.7758 41.9702 41.5093 40.6108 42.2237 39.287C42.5976 38.5941 42.9662 37.911 43.3725 37.3055C44.1397 36.1625 44.9761 35.0889 45.9138 34.1222C46.0523 33.9139 46.1802 33.7002 46.2974 33.4866ZM14.8645 13.4466C13.2822 12.1915 11.2844 12.9446 10.7037 14.4454V14.4508C10.1176 15.9516 10.091 17.3724 12.1848 17.5379C15.36 17.789 16.4468 14.6965 14.8645 13.4466ZM22.5363 7.4058C22.3978 6.19871 23.4473 5.22662 24.6194 5.58448C25.5304 5.86756 26.4095 6.73816 26.6705 7.65684C26.7185 7.83309 26.7558 8.02003 26.7717 8.21232C26.7353 9.86113 25.7176 9.65455 24.5133 9.41008C24.4848 9.4043 24.4563 9.3985 24.4276 9.39271C23.4899 9.20043 22.6482 8.38323 22.5363 7.4058ZM20.4069 21.9798C20.5471 22.0015 20.6869 22.0231 20.8368 21.9925V21.9871L20.8462 21.9838C20.8574 21.9798 20.8668 21.9764 20.8794 21.9764C21.0213 21.9374 21.1444 21.8487 21.2675 21.7601C21.3801 21.679 21.4927 21.5978 21.6199 21.5545C21.9769 21.4316 22.3711 21.437 22.7334 21.5385C24.4329 22.0138 24.4702 24.193 23.3674 25.2933C21.4335 27.2268 16.6706 24.4547 19.0201 22.4358C19.2971 22.2008 19.6487 22.0192 20.011 21.9604C20.1488 21.9399 20.278 21.9599 20.4069 21.9798ZM29.5741 15.0169C29.7232 15.2466 29.8724 15.3481 30.0376 15.3855C30.3084 15.4464 30.5629 15.429 30.8022 15.4127C31.2972 15.3789 31.7276 15.3495 32.1047 16.0264C32.4137 16.5712 32.3018 17.319 31.9928 17.8477C31.5612 18.5901 30.6822 19.0708 29.8298 19.0708C28.4766 19.0762 27.4856 17.7997 27.1447 16.6032C26.8463 15.5564 27.2352 13.3024 28.9028 14.0395C29.2206 14.1831 29.2957 14.3818 29.3849 14.6175C29.4317 14.7413 29.4823 14.8753 29.5741 15.0169ZM8.83903 28.765C9.90455 27.0558 12.0303 27.4831 13.2503 28.6315H13.2556C13.3408 28.7437 13.4314 28.8772 13.5167 29.0321C13.6308 29.2247 13.6853 29.4334 13.7448 29.6611C13.7991 29.8692 13.8576 30.0931 13.9695 30.3353C14.0015 30.5757 14.0175 30.816 14.0015 31.035C13.9802 31.254 13.9322 31.4569 13.8523 31.6172C13.7671 31.7774 13.6498 31.9003 13.49 31.9644C12.9891 31.9004 12.4285 31.9509 11.866 32.0015C10.5498 32.12 9.22311 32.2395 8.62592 30.8961C8.41282 30.2552 8.41282 29.406 8.83903 28.765ZM17.9865 38.5713C17.1341 37.2948 18.1996 35.7993 19.4037 35.3239V35.3186C19.5635 35.2331 19.734 35.1637 19.9098 35.1156C22.451 34.3038 23.7297 37.5031 22.4777 39.3725C22.4191 39.5007 22.3392 39.6449 22.2433 39.7678C22.0568 40.0188 21.8171 40.2057 21.588 40.1256C21.4761 40.0829 21.3642 39.9761 21.263 39.7731C20.8676 39.1172 20.1817 39.0738 19.5017 39.0308C18.9357 38.995 18.3737 38.9595 17.9865 38.5713ZM32.403 26.7941C34.0705 27.1734 34.1824 29.1656 33.6017 30.4742V30.4795C33.1755 31.4463 32.2059 31.9911 31.1617 32.1192C29.5847 32.3169 27.8426 31.5638 27.5922 29.892C27.4056 28.641 28.2911 28.5753 29.1758 28.5096C29.9078 28.4552 30.6391 28.4009 30.7621 27.6754C30.89 26.9063 31.7211 26.6392 32.403 26.7941ZM39.5045 11.9122C39.5567 11.92 39.6084 11.9278 39.6592 11.9351C39.7977 11.9565 39.9309 11.9992 40.0641 12.0526C41.2362 12.6615 42.2324 14.173 41.2362 15.4442C41.1296 15.5831 41.0124 15.7059 40.8899 15.8074C40.5169 16.1119 40.0748 16.24 39.7178 16.0317C39.6214 15.9351 39.5249 15.8335 39.4239 15.7271L39.4088 15.7113C39.232 15.4771 38.994 15.2298 38.7452 14.9713C37.9667 14.1626 37.0829 13.2443 37.64 12.2769C37.9824 11.685 38.7961 11.8065 39.5045 11.9122ZM39.1584 26.6713C38.5777 24.9675 41.4067 23.7871 42.5734 24.5402C42.5734 24.5402 43.3352 24.6577 44.0012 25.5764C44.6671 26.4897 44.6512 27.3763 43.3193 28.295C41.9874 29.2137 39.7391 28.3751 39.1584 26.6713ZM36.3347 38.6513C36.2373 38.8947 36.1429 39.1307 36.095 39.3298L36.0897 39.3351C36.0364 39.5007 35.9672 39.6663 35.8766 39.8372C35.786 40.0028 35.6742 40.1737 35.5356 40.3339C35.4397 40.4461 35.3332 40.5582 35.2107 40.6597C34.6086 41.1671 33.7669 41.4769 33.0263 41.1511C32.5788 40.9535 32.2379 40.5262 32.142 40.0455C32.0141 39.3779 32.4137 38.7156 32.8186 38.2188C32.9091 38.1067 33.0104 37.9998 33.1169 37.9037C33.2235 37.8076 33.3353 37.7168 33.4525 37.6366C34.1505 36.8729 35.4238 36.8729 36.2762 37.0865C36.8994 37.2397 36.6056 37.974 36.3347 38.6513Z" fill="#6A3906"/>
</svg>
