<svg width="50" height="50" viewBox="0 0 50 50" fill="none" xmlns="http://www.w3.org/2000/svg">
<path d="M39.9398 50.0018H30.9538C30.088 49.6778 29.7825 49.0435 29.7871 48.1407C29.8102 44.4185 29.801 40.6963 29.7964 36.9741C29.7964 35.3121 28.7871 34.3121 27.1158 34.3074C25.7315 34.3028 24.3519 34.3074 22.9677 34.3074C21.1621 34.3074 20.1899 35.275 20.1853 37.0667C20.1853 40.7565 20.1714 44.4463 20.1945 48.1361C20.1992 49.0389 19.8982 49.6778 19.0325 50.0018H10.0464C10.0047 49.9787 9.9677 49.937 9.9214 49.9324C7.58808 49.6454 5.28716 47.4787 5.32882 44.3074C5.39364 39.6083 5.34734 34.9047 5.34734 30.201C5.34734 30.0111 5.34734 29.826 5.34734 29.6732C4.64827 29.5898 4.00475 29.5898 3.4029 29.4324C-0.0970904 28.5111 -1.15727 24.2519 1.45383 21.6315C8.16678 14.9093 14.8936 8.19176 21.6204 1.47881C21.9075 1.19178 22.2223 0.923258 22.5603 0.710296C24.4399 -0.479516 26.7362 -0.155443 28.4306 1.539C34.875 7.9788 41.3148 14.4325 47.7732 20.8584C48.8056 21.8862 49.7454 22.9278 50 24.4186V25.5899C49.5324 26.8028 49.25 27.8723 48.1482 28.6917C47.0972 29.4787 45.9074 29.5991 44.6343 29.5991C44.6343 33.8213 44.6435 38.0435 44.6343 42.2657C44.6296 44.0806 44.8195 45.9278 43.7871 47.525C42.8704 48.9417 41.5093 49.5713 39.9398 49.9972V50.0018Z" fill="#6A3906"/>
</svg>
