<svg width="45" height="45" viewBox="0 0 45 45" fill="none" xmlns="http://www.w3.org/2000/svg">
<path d="M0 26.91C0 25.92 0.7 25.1 1.62 25.01C9.6 24.29 15.96 18.27 16.73 9.76C16.82 8.77 17.58 8 18.5 8C19.43 8 20.18 8.77 20.27 9.76C21.04 18.27 27.4 24.29 35.38 25.01C36.29 25.09 37 25.92 37 26.91C37 27.91 36.29 28.73 35.37 28.81C27.4 29.45 21.05 34.82 20.28 43.24C20.19 44.23 19.43 45 18.51 45C17.58 45 16.83 44.23 16.74 43.24C15.96 34.82 9.62 29.45 1.65 28.81C0.71 28.73 0 27.91 0 26.91Z" fill="#6A3906"/>
<path d="M28.31 8.53C28.31 8.08 28.63 7.71 29.04 7.67C32.64 7.35 35.51 4.63 35.86 0.79C35.89 0.35 36.24 0 36.65 0C37.07 0 37.41 0.35 37.45 0.8C37.8 4.64 40.67 7.36 44.27 7.68C44.68 7.72 45 8.09 45 8.54C45 8.99 44.68 9.36 44.26 9.4C40.66 9.69 37.8 12.11 37.45 15.91C37.41 16.36 37.07 16.71 36.65 16.71C36.23 16.71 35.89 16.36 35.85 15.91C35.5 12.11 32.64 9.69 29.04 9.4C28.62 9.37 28.3 8.99 28.3 8.54L28.31 8.53Z" fill="#6A3906"/>
</svg>
