<svg width="400" height="208" viewBox="0 0 400 208" fill="none" xmlns="http://www.w3.org/2000/svg">
<g clip-path="url(#clip0_2_287)">
<path fill-rule="evenodd" clip-rule="evenodd" d="M125.706 25.5442C157.594 47.5555 156.727 74.1373 156.364 78.4554L156.42 78.3713C167.552 104.448 147.189 121.945 146.993 122.114C146.853 122.226 146.685 122.31 146.517 122.394C143.832 125.899 140.587 128.31 138.629 128.843C137.175 129.6 129.958 132.965 124.364 130.245C123.413 129.796 122.993 128.619 123.468 127.637C123.944 126.684 125.091 126.263 126.07 126.74C129.622 128.479 135.189 126.263 137.035 125.282C137.231 125.17 137.455 125.086 137.678 125.058C139.441 124.637 149.566 116.758 147.189 104.504C146.657 101.897 145.706 100.158 144.308 99.3451C142.713 98.4198 140.699 98.8965 139.664 99.261C136.755 100.299 134.629 104.561 134.07 106.103C133.93 106.467 133.678 106.804 133.343 107.028C117.371 118.216 116.979 117.88 115.664 116.534C114.61 115.476 114.822 114.944 116.819 109.924L116.867 109.804C119.524 103.159 125.063 89.2788 124.643 81.4837C124.476 78.6237 121.119 75.5113 118.881 73.4363L118.657 73.212C114.545 69.3986 109.622 65.8655 103.608 62.4447C97.3426 58.9116 91.0489 56.3039 84.8671 54.7617C78.2296 53.0984 71.5375 52.9151 64.4662 52.7215L64.2238 52.7148C56.3916 52.4905 46.1259 52.5186 36.2238 54.6215C27.7762 56.4161 21.8461 59.136 17.5664 63.2298C14.7133 65.9777 12.979 69.3705 12.1398 73.913C12 74.6701 11.8881 75.2589 11.7482 75.8477C10.5454 81.0071 9.39859 86.559 8.13985 93.2885L7.77621 95.2794L7.76262 95.3511C4.6041 112.022 0.685746 132.704 10.7412 146.508C13.5384 150.378 17.6224 153.658 23.5245 156.827C36.5035 163.809 51.6923 166.781 66.3217 165.239C80.951 163.697 95.1888 157.584 106.434 148.05C107.245 147.349 108.475 147.434 109.175 148.275C109.874 149.116 109.762 150.35 108.951 151.051C98.5454 159.883 85.6503 165.912 72.1958 168.351C74.0419 171.239 76.923 176.735 76.6433 182.624C94.4895 170.987 123.468 165.015 125.007 164.706C126.042 164.51 127.077 165.183 127.301 166.248C127.496 167.286 126.825 168.323 125.762 168.548C125.399 168.604 94.5454 174.997 77.5384 186.717C77.486 186.76 77.3745 186.85 77.2173 186.977L77.2097 186.983L77.2087 186.984L77.2079 186.985C76.0118 187.95 72.2421 190.992 71.5524 191.709C71.3007 191.961 71.0769 192.213 70.8811 192.438C70.8531 192.494 70.8251 192.522 70.7692 192.578C70.7216 192.635 70.6676 192.695 70.6126 192.757L70.6112 192.759L70.6107 192.759L70.6106 192.759C70.5045 192.878 70.395 193 70.3217 193.111L70.3776 193.054C69.7063 193.868 69.0909 194.681 68.5874 195.522C65.1616 201.281 65.9759 204.616 66.0384 204.872L66.0408 204.882C66.0415 204.885 66.0419 204.887 66.0419 204.887C66.3776 205.897 65.8461 207.018 64.8391 207.355C64.6433 207.439 64.4196 207.467 64.1958 207.467C63.4126 207.467 62.6573 206.99 62.3776 206.205C62.1818 205.728 60.6993 201.13 65.2587 193.503C66.8531 190.839 69.1748 188.372 71.972 186.072C74.8251 178.838 69.007 170.454 67.9161 168.996C67.7788 169.016 67.645 169.039 67.5121 169.062C67.2661 169.104 67.0235 169.146 66.7692 169.164C64.1119 169.445 61.4266 169.585 58.7412 169.585C45.9021 169.585 33.007 166.388 21.7063 160.332C15.2727 156.855 10.7692 153.21 7.60838 148.864C-3.46854 133.666 0.811177 111.094 3.94404 94.6064L4.30768 92.6436C5.56642 85.858 6.74125 80.25 7.94404 75.0346C8.03409 74.6735 8.10094 74.3241 8.167 73.9788L8.16703 73.9787C8.20357 73.7877 8.23986 73.598 8.27971 73.4083C8.7832 70.7445 9.53845 68.4452 10.5454 66.3703C-3.07693 58.5471 0.335652 36.9003 0.503485 35.947C2.88111 6.86964 36.4196 0.112031 36.7552 0.0839915C37.5664 -0.0842477 38.3776 0.280271 38.7972 1.00931C39.2168 1.7103 39.1329 2.60758 38.6014 3.2525C35.8321 6.53316 35.2727 8.52399 35.6643 9.30911C36.2238 10.3746 39.0769 10.7952 40.8951 10.6831C85.5105 2.29914 110.685 15.1414 125.706 25.5442ZM14.0419 40.6857C11.6923 46.7704 15.0489 52.9392 20.0839 56.5002C21.3426 55.7431 22.6853 55.0421 24.1119 54.3972C24 54.3411 23.8881 54.2851 23.7482 54.229C17.9021 52.6307 12.8671 47.1069 14.0419 40.6857ZM30.9091 51.9578C32.3356 51.5372 33.8182 51.1726 35.3846 50.8362C35.8601 50.752 36.3077 50.6679 36.7552 50.5838C36.701 50.5729 36.651 50.5537 36.6004 50.5341C36.5203 50.5032 36.4384 50.4716 36.3356 50.4716C31.9161 50.1352 26.4895 47.892 25.8741 42.8448C25.4266 46.7423 27.8042 49.8267 30.9091 51.9578ZM37.6783 43.013C37.5664 45.5927 38.6853 48.0322 40.4196 49.9389V49.9669C42.0699 49.7146 43.7203 49.5183 45.3426 49.3501C41.8461 48.9855 38.6853 46.6021 37.6783 43.013ZM70.1259 74.2775C71.1888 74.1093 72.1958 74.8383 72.3636 75.9038V75.9319C72.5315 76.9974 71.8042 78.0068 70.7412 78.175C63.972 79.2686 57.3706 85.0168 57.3147 85.0729C56.951 85.3813 56.4755 85.5495 56.028 85.5495C55.4965 85.5495 54.965 85.3252 54.5734 84.8766C53.8461 84.0634 53.9301 82.8297 54.7412 82.1006C55.0489 81.8202 62.2098 75.5393 70.1259 74.2775ZM26.4615 85.6337C26.0699 86.1664 25.4545 86.4748 24.8391 86.4748C24.4475 86.4748 24.0559 86.3627 23.7203 86.1384C20.4475 83.8671 14.3217 83.3905 14.2657 83.3905C13.2028 83.3063 12.3916 82.353 12.4755 81.2875C12.5594 80.1939 13.5105 79.3808 14.5734 79.4649L14.6237 79.4695C15.3156 79.5313 21.9301 80.1226 25.958 82.9138C26.8531 83.5307 27.0769 84.7364 26.4615 85.6337ZM62.1538 90.9893C62.1538 94.2139 64 96.8496 66.2937 96.8496C68.5874 96.8496 70.4336 94.2419 70.4336 90.9893C70.4336 87.7366 68.5874 85.1289 66.2937 85.1289C64 85.1289 62.1538 87.7366 62.1538 90.9893ZM18.0979 99.1208C16.3357 99.1208 14.8811 96.9057 14.8811 94.2139C14.8811 91.494 16.3357 89.3069 18.0979 89.3069C19.8601 89.3069 21.3147 91.494 21.3147 94.2139C21.3147 96.9337 19.8601 99.1208 18.0979 99.1208ZM34.7972 97.4104C33.8461 96.8776 32.6713 97.2422 32.1398 98.1955C29.1748 103.579 27.6364 106.888 27.5804 108.037C27.4965 109.524 28.1958 112.608 28.8391 113.449C29.2308 113.982 29.9021 114.318 30.5454 114.318C30.937 114.318 31.3007 114.206 31.6364 113.954C32.5035 113.309 32.7552 112.187 32.1119 111.318C31.9161 110.898 31.4405 109.019 31.4685 108.402C31.6643 107.533 33.7622 103.411 35.5804 100.074C36.1119 99.1208 35.7482 97.9432 34.8252 97.4104H34.7972ZM54.4895 124.02C55.4126 123.431 56.6154 123.684 57.2028 124.581V124.553C57.7902 125.45 57.5384 126.684 56.6433 127.273C47.3007 133.498 39.1329 135.432 32.6154 135.432C22.2098 135.432 15.944 130.497 15.5245 130.161C14.6853 129.488 14.5734 128.254 15.2447 127.413C15.9161 126.572 17.1468 126.46 17.986 127.133C18.5734 127.609 32.6713 138.545 54.4895 124.02ZM36.0559 141.433C34.8702 141.755 33.6191 141.508 33.3043 141.446L33.3031 141.446L33.2599 141.438C33.2443 141.435 33.2345 141.433 33.2308 141.433C32.1958 141.153 31.1329 141.769 30.8531 142.835C30.5734 143.872 31.1888 144.966 32.2238 145.246C32.3916 145.302 33.3706 145.555 34.7133 145.555C35.4405 145.555 36.2517 145.471 37.0629 145.246C38.0979 144.966 38.7133 143.9 38.4336 142.835C38.1538 141.798 37.0909 141.153 36.0559 141.433ZM212.252 116.506C212.252 117.712 206.937 120.6 203.86 120.6H202.797V75.792L212.252 79.1007V116.506ZM179.245 130.189C198.601 132.881 214.294 127.638 225.175 106.271H225.203L232.727 112.861C220.531 134.452 198.937 139.022 179.245 132.489V130.189ZM173.119 111.318C182.294 107.112 187.748 94.214 188.392 85.6338V85.6618C188.392 85.6618 192.42 86.475 197.594 88.578C195.944 98.2517 186.937 110.365 175.692 112.776L173.119 111.318ZM233.511 103.832C228.615 94.4668 216.224 88.1017 216.224 88.1017L218.853 85.9707C228.168 86.9521 239.916 97.8035 239.916 97.8035L233.511 103.832ZM287.525 75.8198V75.8298L287.497 75.8198H287.525ZM287.525 75.8298C287.524 76.6291 287.469 125.204 287.469 125.899C287.469 129.236 284.559 130.526 282.965 130.526C277.93 130.554 276.14 129.096 276.14 129.096L275.189 131.423C275.23 131.45 275.306 131.513 275.416 131.606C276.348 132.388 279.738 135.236 285.566 135.236C292.783 135.236 295.413 132.488 296.531 129.993C296.976 129.024 297.029 127.907 297.08 126.85L297.091 126.628V79.2407L287.525 75.8298ZM269.93 90.4286C269.287 99.0088 263.972 113.001 254.825 117.179L257.399 118.609C268.643 116.197 278.294 104.505 279.133 93.3167C273.958 91.2137 269.93 90.4006 269.93 90.4006V90.4286ZM299.58 93.4289L302.937 90.8772C302.937 90.8772 316.979 96.0926 325.902 113.337L318.014 118.861C318.014 118.861 309.594 101.617 299.58 93.4289ZM371.608 81.5682L361.874 75.792C359.58 84.0918 353.343 90.9335 340.979 92.644L341.483 95.1675C344.986 95.7354 348.118 95.8262 350.909 95.5703V135.208H360.559V132.993H390.266V135.208H400V87.5687H367.62C370.516 84.4115 371.636 81.5402 371.636 81.5402L371.608 81.5682ZM390.266 108.683H360.559V93.0085H390.266V108.683ZM360.559 112.805H390.266V127.498H360.559V112.805Z" fill="#6A3906"/>
</g>
<defs>
<clipPath id="clip0_2_287">
<rect width="400" height="207.495" fill="white"/>
</clipPath>
</defs>
</svg>
