<?xml version="1.0" encoding="UTF-8"?>
<svg id="_圖層_1" data-name="圖層 1" xmlns="http://www.w3.org/2000/svg" version="1.1" viewBox="0 0 400 208">
  <defs>
    <style>
      .cls-1 {
        fill: #6a3906;
        stroke-width: 0px;
      }
    </style>
  </defs>
  <g>
    <path class="cls-1" d="M155.5,115.6v-48.4l-12.3-4.3v58h1.4c4,0,10.9-3.7,10.9-5.3Z"/>
    <path class="cls-1" d="M172.3,102.3c-14.2,27.7-34.6,34.5-59.8,31v3c25.6,8.5,53.8,2.5,69.7-25.4l-9.8-8.5h0Z"/>
    <path class="cls-1" d="M136.4,79.4c-6.7-2.7-12-3.8-12-3.8h0c-.8,11.1-7.9,27.8-19.9,33.2l3.4,1.9c14.6-3.1,26.4-18.8,28.5-31.3Z"/>
    <path class="cls-1" d="M164.1,76.1l-3.4,2.8s16.1,8.2,22.5,20.4l8.3-7.8s-15.3-14-27.4-15.3Z"/>
  </g>
  <g>
    <path class="cls-1" d="M230.6,81.8h0c-.8,11.1-7.8,29.3-19.7,34.7l3.4,1.9c14.6-3.1,27.2-18.3,28.3-32.7-6.7-2.7-12-3.8-12-3.8Z"/>
    <path class="cls-1" d="M253.5,127.7c0,4.3-3.8,6-5.9,6-6.6,0-8.9-1.9-8.9-1.9l-1.2,3c.5.3,5,4.9,13.5,4.9s12.8-3.6,14.3-6.8c.6-1.3.7-2.9.7-4.4v-61.4l-12.5-4.4c0,.6,0,63.9,0,64.8Z"/>
    <polygon class="cls-1" points="253.5 62.9 253.5 62.9 253.5 62.9 253.5 62.9"/>
    <path class="cls-1" d="M273.6,82.4l-4.4,3.3c13,10.6,24,32.9,24,32.9l10.3-7.2c-11.6-22.3-29.9-29.1-29.9-29.1Z"/>
  </g>
  <path class="cls-1" d="M357.9,78.1c3.7-4.1,5.2-7.8,5.2-7.8h0s-12.7-7.4-12.7-7.4c-3,10.7-11.1,19.6-27.2,21.8l.7,3.3c4.6.7,8.6.8,12.3.5v51.3h12.6v-2.9h38.7v2.9h12.7v-61.7h-42.1ZM387.3,129.8h-38.7v-19h38.7v19ZM387.3,105.5h-38.7v-20.3h38.7v20.3Z"/>
  <g>
    <path class="cls-1" d="M34.7,88.2h0c0-.6-.5-.9-1.1-.8-3.8.6-7.2,3.6-7.4,3.7-.4.3-.4.9,0,1.3.2.2.4.3.7.3s.4,0,.6-.2c0,0,3.2-2.8,6.4-3.3.5,0,.9-.5.8-1.1Z"/>
    <path class="cls-1" d="M11.9,93.2h0c.3,0,.6-.2.8-.4.3-.4.2-1-.3-1.3-2-1.4-5.3-1.6-5.5-1.6-.5,0-.9.4-1,.9,0,.5.4,1,.9,1,0,0,3,.2,4.5,1.3.1.1.4.2.5.2Z"/>
    <path class="cls-1" d="M29.8,95.3c0,1.5.9,2.8,2,2.8s2-1.2,2-2.8-.9-2.8-2-2.8-2,1.2-2,2.8Z"/>
    <path class="cls-1" d="M7.2,96.9c0,1.3.7,2.3,1.5,2.3s1.5-1.1,1.5-2.3-.7-2.3-1.5-2.3-1.5,1.1-1.5,2.3Z"/>
    <path class="cls-1" d="M17.1,99.6c.3-.4,0-1-.4-1.3h0c-.5-.2-1,0-1.3.4-1.4,2.6-2.1,4.1-2.2,4.7,0,.7.3,2.2.6,2.6.2.3.5.4.8.4s.4,0,.5-.2c.4-.3.5-.8.2-1.3-.1-.2-.3-1.1-.3-1.4.1-.4,1.1-2.4,2-4Z"/>
    <path class="cls-1" d="M27.4,111.3c-.3-.4-.9-.5-1.3-.3-10.5,6.9-17.2,1.7-17.5,1.5-.4-.3-1-.3-1.3.1-.3.4-.3,1,.1,1.3.2.1,3.2,2.5,8.2,2.5s7-.9,11.5-3.9c.4-.3.5-.9.3-1.3Z"/>
    <path class="cls-1" d="M17.3,119.3h0c-.7.2-1.3,0-1.3,0-.5-.1-1,.2-1.1.7-.1.5.1,1,.7,1.1,0,0,.5.1,1.2.1s.7,0,1.1-.1c.5-.1.8-.7.7-1.1-.1-.5-.7-.8-1.1-.7Z"/>
    <path class="cls-1" d="M74.9,89.5h0c.2-2.2.6-14.8-14.7-25.3-7.2-4.9-19.3-11.1-40.6-7.1-.9,0-2.2-.1-2.5-.7-.2-.4,0-1.3,1.4-2.9.3-.3.3-.7.1-1.1-.2-.3-.6-.5-1-.4-.2,0-16.2,3.2-17.4,17.1,0,.4-1.7,10.7,4.8,14.5-.5,1-.8,2.1-1.1,3.3,0,.3-.1.5-.1.8-.6,2.5-1.1,5.2-1.7,8.4l-.2.9c-1.5,7.8-3.5,18.6,1.7,25.8,1.5,2.1,3.7,3.8,6.7,5.4,5.4,2.9,11.6,4.4,17.7,4.4s2.6,0,3.9-.2c.2,0,.4,0,.5,0,.5.7,3.3,4.7,1.9,8.1-1.3,1.1-2.4,2.3-3.2,3.6-2.2,3.6-1.5,5.8-1.4,6.1.1.4.5.6.9.6s.2,0,.3,0c.5-.2.7-.7.6-1.2,0,0-.5-1.6,1.2-4.5.3-.4.5-.8.8-1.2,0,0,.1-.1.2-.2,0,0,0,0,0,0,.1-.1.2-.2.3-.3.4-.4,2.7-2.2,2.9-2.4,8.2-5.6,22.9-8.6,23.1-8.6.5-.1.8-.6.7-1.1-.1-.5-.6-.8-1.1-.7-.7.1-14.6,3-23.2,8.5.1-2.8-1.2-5.4-2.1-6.8,6.4-1.2,12.6-4,17.6-8.2.4-.3.4-.9.1-1.3-.3-.4-.9-.4-1.3-.1-5.4,4.5-12.2,7.4-19.2,8.2-7,.7-14.3-.7-20.5-4-2.8-1.5-4.8-3.1-6.1-4.9-4.8-6.6-3-16.4-1.4-24.4l.2-.9c.6-3.2,1.2-5.8,1.7-8.3,0-.3.1-.6.2-.9.4-2.2,1.2-3.8,2.6-5.1,2-2,4.9-3.3,8.9-4.1,4.7-1,9.7-1,13.4-.9,3.4.1,6.7.2,9.9,1,3,.7,6,2,9,3.7,2.9,1.6,5.2,3.3,7.2,5.1h.1c1.1,1.1,2.7,2.6,2.8,3.9.2,3.7-2.4,10.3-3.7,13.5-1,2.4-1.1,2.7-.6,3.2.6.7.8.8,8.5-4.5.1-.1.3-.3.3-.4.3-.7,1.3-2.8,2.7-3.3.5-.2,1.5-.4,2.2,0,.7.4,1.1,1.2,1.4,2.5,1.1,5.8-3.7,9.6-4.6,9.8-.1,0-.2,0-.3.1-.9.5-3.5,1.5-5.2.7-.5-.2-1,0-1.2.4-.2.5,0,1,.4,1.2,2.7,1.3,6.1-.3,6.8-.7.9-.3,2.5-1.4,3.8-3.1,0,0,.1,0,.2-.1.1,0,9.8-8.4,4.5-20.8ZM9.6,78.9h0c-2.4-1.7-4-4.7-2.9-7.6-.6,3,1.9,5.7,4.7,6.5,0,0,.1,0,.2,0-.7.3-1.3.7-1.9,1ZM16.9,76.2h0c-.8.1-1.5.3-2.1.5-1.5-1-2.6-2.5-2.4-4.4.3,2.4,2.9,3.4,5,3.6,0,0,.1,0,.2,0-.2,0-.4,0-.7.1ZM19.4,75.8c-.8-.9-1.3-2.1-1.3-3.3.5,1.7,2,2.8,3.7,3-.8,0-1.6.2-2.4.3Z"/>
  </g>
</svg>