<svg width="50" height="50" viewBox="0 0 50 50" fill="none" xmlns="http://www.w3.org/2000/svg">
<path d="M46.6694 8.46755C42.6727 3.55253 32.6808 1.91418 28.6841 5.51854C24.3543 9.12289 22.0229 12.7272 16.3608 14.3656C16.3608 14.3656 4.03757 16.3316 1.04002 25.1786C-2.29059 33.698 2.70533 42.5451 11.3649 45.1664C20.0245 47.7878 36.0114 44.8387 44.338 34.681C52.6645 24.5233 50.3331 13.7102 46.6694 8.46755ZM32.0147 16.0039C30.3494 20.919 24.6874 23.5403 20.0245 23.868C16.3608 23.868 6.369 22.885 15.6947 20.5913C25.0204 18.2976 30.0163 12.3996 30.0163 12.3996C30.0163 12.3996 33.68 10.4336 32.0147 15.6763V16.0039Z" fill="#6A3906"/>
</svg>
